<svg fill="none" height="370" viewBox="0 0 243 370" width="243" xmlns="http://www.w3.org/2000/svg"><path clip-rule="evenodd" d="m93.542 1.46601c-5.068 1.36-8.542 4.401-8.542 7.478 0 3.10999 1.251 3.05699 2.89-.122 3.55-6.888 15.834-8.518001 24.762-3.286 10.747 6.29799 22.521 25.82099 17.621 29.21699-5.414 3.752-5.995 3.588-7.316-2.067-1.463-6.263-3.789-12.188-4.504-11.473-.286.286.422 3.955 1.574 8.152 2.485 9.06 2.409 9.25-4.099 10.145-2.789.383-5.288 1.264-5.554 1.957-.272.709-3.09 1.532-6.454 1.884-3.284.343-6.98.877-8.213 1.186-2.131.535-2.357.003-4.565-10.737-2.69-13.081-5.507-20.692-4.685-12.659.261 2.553 1.698 9.05 3.193 14.439 2.118 7.635 2.429 9.894 1.409 10.234-7.295 2.431-6.267 13.754 2.229 24.531 5.552 7.043 1.202 11.732-11.137 12.007-8.972.2-13.007-7.412-19.433-36.657-2.32-10.557-4.36-17.962-4.534-16.454-.527 4.579 6.145 35.725 9.863 46.041 2.634 7.309 2.283 9.591-1.909 12.409-11.209 7.536-19.457 2.638-25.579-15.191-1.511-4.4-4.745-12.336-7.186-17.635-2.442-5.299-4.711-11.925-5.043-14.725-.352-2.975-1.014-4.835-1.592-4.478-2.117 1.308.099 11.595 4.186 19.426 8.436 16.165 14.2 32.88 12.927 37.488-1.373 4.975-9.652 8.615-14.927 6.564-3.377-1.313-17.888-25.453-18.631-30.993-.30301-2.258-.94301-3.863-1.42201-3.567s-.885-1.176-.903-3.271c-.03-3.652-.097-3.726-1.614-1.809-1.476 1.864-1.547 1.558-1.046-4.5.537-6.5.537-6.5-1.885-3.694-2.93 3.392-3.240001 9.528-.776 15.322 1.647 3.872 1.647 3.872 2.955.872s1.308-3 1.353-.332c.025 1.468.32 3.385.656 4.262.448 1.166.18 1.427-1 .974-2.036-.781-2.057.515-.054 3.373 1.321 1.887 1.338 2.223.111 2.223-.859 0-1.775-1.521-2.257-3.75-.785-3.623-.833-3.53-1.427 2.75-.743 7.854-.467 8.841 2.699 9.635 1.355.34 2.96 1.799 3.568 3.242 1.10601 2.623 1.10601 2.623 1.50801.291.431-2.505-2.19001-6.168-4.41401-6.168-.74 0-1.345-.864-1.345-1.92 0-4.557 7.63501.568 11.65001 7.821 5.52 9.97 7.075 11.853 10.802 13.083 7.205 2.378 18.548-4.079 18.548-10.558 0-2.775 0-2.775 2.25-.739 2.934 2.654 8.017 4.313 13.218 4.313 4.169 0 4.169 0 4.22 9.25.046 8.321 1.892 21.503 2.875 20.521.213-.214-.095-3.287-.684-6.83-.596-3.579-.8-10.525-.459-15.632.51-7.657.356-9.335-.921-10.05-1.256-.703-.944-1.287 1.734-3.234 1.797-1.308 3.641-2.998 4.098-3.756.65-1.08 1.143-1.121 2.267-.188.983.816 3.48.982 7.919.528 7.763-.796 7.704-.996 1.557 5.315-10.336 10.611-13.983 22.654-10.902 36 1.353 5.86 3.435 7.051 2.32 1.326-3.066-15.744 3.601-31.509 18.477-43.687 6.228-5.1 7.19-6.222 4.42-5.159-1.331.511-1.491.137-.919-2.141.885-3.527.998-3.614 3.194-2.461 3.383 1.775 16.657 3.449 22.505 2.838 5.788-.605 5.788-.605 5.223 3.628-.326 2.435-.038 5.506.677 7.232.684 1.65 1.151 3.75 1.038 4.668-.487 3.962 13.061 13.408 18.111 12.627 1.927-.299 1.582-.678-2.218-2.44-7.318-3.394-13.284-8.558-8.892-7.697 3.392.665 3.392.665-.858-3.974-2.338-2.552-4.256-5.437-4.264-6.412-.007-.974-.285-2.785-.616-4.022-.538-2.006-.238-2.251 2.763-2.26 5.41-.015 18.867-7.129 18.867-9.973 0-.348-3.488 1.069-7.75 3.15-8.214 4.011-13.257 5.608-13.239 4.191.007-.472 1.919-1.738 4.25-2.813 6.811-3.141 9.654-5.459 11.762-9.589 2.888-5.661 2.504-8.329-.497-3.456-2.464 4-2.464 4-2.495.75-.045-4.683-1.887-4.001-2.686.994-2.563 16.029-41.658 16.623-49.808.756-3.106-6.047-2.954-7.742.359-4 3.099 3.5 3.099 3.5.068-2.416-3.592-7.009-3.987-6.505 8.286-10.542 5.363-1.764 9.75-3.567 9.75-4.008s2.813-.989 6.25-1.218c4.375-.292 9.381-1.708 16.686-4.719 18.175-7.492 20.586-5.143 30.077 29.307 1.198 4.348 3.662 11.162 5.477 15.143 6.089 13.362 6.401 21.486 1.131 29.45-2.693 4.069-2.259 5.47.686 2.216 7.247-8.007 5.396-25.482-5.686-53.682-2.385-6.067-4.842-13.693-5.46-16.948-2.094-11.01-11.601-16.351-21.64-12.156-3.414 1.426-3.414 1.426-4.582-2.25-7.088-22.31499-21.435-31.80099-40.397-26.71099zm-25.042 6.197c-7.669 1.653-12.065 6.05399-12.717 12.73199-.405 4.147 1.58 4.257 3.058.169 2.453-6.785 10.751-11.11599 19.903-10.388 4.33.344 4.359.326 2.211-1.41399-2.078-1.682-7.52-2.163-12.455-1.099zm38.885 5.43399c0 4.907 1.28 5.129 2.942.511.234-.651 1.485-.11 3.032 1.313 1.448 1.331 2.972 2.073 3.387 1.648.415-.424-.308-1.514-1.606-2.42-1.298-.907-3.456-2.662-4.796-3.899-3.134-2.89599-2.959-3.06399-2.959 2.847zm-25.525 1.376c-.31.31-.348 2.803-.085 5.54.319 3.32.031 5.516-.866 6.597-1.17 1.409-1.088 1.572.623 1.246 1.556-.296 2.03-1.323 2.264-4.903.294-4.501-.86-9.556-1.936-8.48zm7.14 2.527c0 1.65.174 3 .387 3 .212 0 .584-1.35.826-3s.069-3-.386-3-.827 1.35-.827 3zm6.441.523c-1.802 1.413-1.655 1.476 2.059.871 5.834-.949 7.838-2.326 3.441-2.364-1.957-.016-4.432.655-5.5 1.493zm-58.982 1.844c-7.541 3.512-12.927 10.989-9.459 13.133.55.34 1-.005 1-.767 0-5.792 17.044-12.523 23.364-9.227 3.7 1.93 3.918 1.889 2.642-.496-2.748-5.134-9.888-6.21-17.547-2.643zm32.893-.374c-3.501 1.413-4.169 3.429-.862 2.599 6.098-1.531 9.404-3.426 6.01-3.447-1.65-.01-3.966.372-5.148.848zm-8.602.59c-1.413 1.414-.75 5.196 1.326 7.556 1.142 1.299 1.795 1.805 1.451 1.126s-.941-3.079-1.327-5.333c-.385-2.255-1.038-3.762-1.45-3.349zm37.709 2.484c-.363.586-.419 1.306-.126 1.6.717.716 2.667-.546 2.667-1.726 0-1.278-1.726-1.193-2.541.126zm-49.459 1.698c0 1.063 2.148 3.235 3.2 3.235 1.552 0 .775-1.943-1.2-3-1.1-.589-2-.695-2-.235zm23.5 4.948c-2.815.677-4.322 2.287-2.141 2.287.967 0 1.481.45 1.141 1-.349.565.47 1 1.882 1 1.375 0 2.778-.45 3.118-1s.156-1-.41-1c-.565 0-.768-.675-.452-1.5.592-1.541.3-1.614-3.138-.787zm-41.917 2.153c-.431.697-.513 1.537-.183 1.867.895.895 1.871-.421 1.387-1.871-.338-1.016-.574-1.016-1.204.004zm8.417 2.134c0 .55.675 1 1.5 1s1.5-.45 1.5-1-.675-1-1.5-1-1.5.45-1.5 1zm-25.973 7.473c-9.97701 10.067-6.25301 10.076 4.473.011 2.75-2.581 5.9-5.067 7-5.525 1.612-.671 1.315-.845-1.529-.896-3.05-.054-4.399.815-9.944 6.41zm17.585-2.654c-.777 1.257 1.643 7.602 3.286 8.618 1.419.877 1.426.921-.755-4.823-1.021-2.688-2.16-4.395-2.531-3.795zm10.888 3.181c-3 .763-3 .763 0 .866 1.65.057 3.675-.333 4.5-.866 1.858-1.201.218-1.201-4.5 0zm5.076 1.519c-1.058.801-3.42 1.736-5.25 2.08-3.636.682-4.557 2.401-1.286 2.401 2.583 0 9.96-3.718 9.96-5.02 0-1.358-1.157-1.176-3.424.539zm68.979 3.231c3.028 6.893 2.083 9.019-5.701 12.818-5.362 2.617-6.406 3.401-3.854 2.894 7.598-1.511 12.473-4.678 12.822-8.331.351-3.669-1.473-9.131-3.05-9.131-.565 0-.658.747-.217 1.75zm-93.555 3.25c0 .55.45 1 1 1s1-.45 1-1-.45-1-1-1-1 .45-1 1zm-9.439 2.348c-1.409 1.409-2.558 3.369-2.555 4.357.009 3.011 1.999 9.18 3.201 9.923.785.485.886.112.328-1.214-2.328-5.536-2.239-8.866.312-11.654 3.232-3.531 2.089-4.787-1.286-1.412zm13.939 10.652c-.34.55-.168 1 .382 1s1.278-.45 1.618-1 .168-1-.382-1-1.278.45-1.618 1zm-9 3c-.738 1.194 1.222 1.194 4 0 1.786-.767 1.712-.867-.691-.93-1.48-.038-2.969.38-3.309.93zm7.5 6.139c-1.375.557-3.999.776-5.831.487-2.827-.447-3.149-.307-2.128.924 1.723 2.076 7.331 1.789 10.098-.517 2.574-2.144 1.774-2.478-2.139-.894zm64.25 3.081c-1.943.938-3.135 2.78-1.797 2.78 1.276 0 5.547-2.434 5.547-3.161 0-1.07-.937-.975-3.75.381zm-11.75 2.78c.34.55.816 1 1.059 1s.441-.45.441-1-.477-1-1.059-1-.781.45-.441 1zm10 1.306c-7.211 1.636-8.495 2.757-2.691 2.349 2.92-.205 5.815-.879 6.433-1.497 1.657-1.657.731-1.867-3.742-.852zm-30.115 4.88c-1.587 1.202-3.072 2.327-3.302 2.5-.229.173-.14.59.198.928.337.338 1.823-.337 3.301-1.5s3.554-2.114 4.612-2.114 1.646-.45 1.306-1c-.973-1.574-2.989-1.183-6.115 1.186zm4.88 4.01c-2.329 1.192-4.065 2.337-3.858 2.545.601.601 7.28-2.425 8.03-3.639.905-1.465.743-1.422-4.172 1.094zm72.735 1.235c0 3.009 11.714 5.755 15 3.517 1.09-.743.52-.853-2.088-.404-3.188.549-6.278-.296-12.162-3.325-.412-.212-.75-.117-.75.212zm-100.338 3.187c-1.562.846-2.616 1.761-2.343 2.034.533.533 6.681-2.39 6.681-3.178 0-.818-1.399-.449-4.338 1.144zm33.376-.103c.065 1.719 6.809 8.972 7.603 8.177.419-.418-1.129-2.651-3.44-4.962-2.311-2.31-4.184-3.757-4.163-3.215zm-58.008 2.02c-.06301 2.174 5.118 32.502 7.501 43.9 2.783 13.31 4.994 17.864 11.93 24.565 2.561 2.475 5.731 6.573 7.043 9.107 1.312 2.535 3.494 5.925 4.848 7.535 4.137 4.917 2.472 11.245-2.98 11.326-5.65.085-5.679 3.504-.396 46.032 1.781 14.339 6.552 20.193 18.239 22.382 5.062.948 7.669 12.196 9.298 40.118 1.022 17.512 3.282 34.68 7.017 53.297 1.908 9.514 3.47 17.502 3.47 17.75 0 .249.402.453.893.453 1.986 0 1.896-3.483-.398-15.424-3.254-16.94-6.24-41.311-6.995-57.076-.342-7.15-1.261-17.5-2.043-23-2.293-16.139-3.626-14.498 11.793-14.51 15.234-.012 34.348-1.517 43.423-3.42 6.253-1.31 6.253-1.31 7.926 3.81 4.415 13.508 17.177 41.62 18.894 41.62.172 0-1.689-4.548-4.136-10.106-4.733-10.755-13.411-35.957-12.755-37.044.215-.357 2.756-1.215 5.645-1.907s6.701-1.862 8.471-2.601c4.449-1.856 4.969-1.728 5.747 1.408 5.637 22.741 42.274 95.844 46.111 92.008.243-.244-2.52-6.026-6.14-12.851-15.536-29.281-22.466-44.787-32.05-71.714-4.941-13.883-4.246-16.628 5.396-21.319 2.356-1.146 4.968-3.049 5.804-4.229 4.505-6.351 15.414-23.608 15.414-24.383 0-3.558 16.847-12.137 29-14.768 16.042-3.472 21-6.709 21-13.708 0-.777 1.35-2.705 3-4.286s3-3.771 3-4.867c0-1.581-.745-1.123-3.6 2.213-7.968 9.308-18.4 9.289-18.4-.035 0-3.527 2.268-3.712 3.818-.311 2.197 4.821 8.989 1.158 15.634-8.431 4.034-5.821 2.608-7.069-1.854-1.623-5.217 6.366-9.004 3.397-4.013-3.146 2.757-3.615 2.757-3.615-.164-5.953-4.007-3.206-4.87-3-8.639 2.054-3.568 4.785-4.052 4.975-24.782 9.759-13.428 3.098-16.648 6.866-14.819 17.34.968 5.546-.739 6.771-6.535 4.686-6.672-2.399-12.162.69-18.812 10.583-3.541 5.27-3.541 5.27-4.163-1.387-.92-9.857-5.917-15.365-12.605-13.896-8.823 1.937-5.025-29.132 5.489-44.904 7.121-10.681 8.122-12.027 12.901-17.332 2.942-3.266 4.158-5.25 3.218-5.25-4.061 0-24.181 27.164-28.392 38.331-1.927 5.112-2.096 22.555-.329 34.004.666 4.31 1.029 8.017.807 8.238-.423.423-19.177 4.394-19.354 4.098-1.656-2.773-2.845-15.803-1.558-17.09 2.263-2.263.613-3.113-2.317-1.193-2.896 1.897-2.973 2.724-1.074 11.583 1.754 8.18 2.45 7.574-10.184 8.869-32.893 3.373-29.621 4.512-36.886-12.84-3.358-8.021-2.898-3.523.613 6 1.65 4.475 3 8.237 3 8.359 0 .377-17.239-1.265-17.655-1.681-.215-.214-1.003-3.604-1.751-7.531-.748-3.928-2.124-8.307-3.057-9.731-2.021-3.084-2.249-2.85 3.889-3.996 2.709-.506 5.094-1.44 5.301-2.075.277-.849-.731-.907-3.79-.219-10.454 2.348-14.95-4.449-18.576-28.086-1.311-8.547-2.606-15.99-2.879-16.54-.795-1.605.496 19.627 1.444 23.75 1.147 4.983.224 4.725-3.579-1.002-4.702-7.079-4.935-7.718-7.752-21.248-2.603-12.501-3.453-16.077-7.607-32-2.091-8.015-3.89-12.772-3.958-10.465zm26.97 1.524c0 .582.45.781 1 .441s1-.816 1-1.059-.45-.441-1-.441-1 .477-1 1.059zm-18 14.698c0 .921 4.844 12.206 5.648 13.16 1.416 1.677 1.073-1.588-.651-6.194-1.896-5.07-4.997-9.392-4.997-6.966zm41 13.263c0 .561 1.167 2.869 2.594 5.129 7.366 11.668 12.483 24.148 11.818 28.82-.508 3.565-.384 4.283.584 3.368 4.376-4.138.581-15.961-10.46-32.587-3.893-5.862-4.536-6.532-4.536-4.73zm28 26.884c0 7.486 22.065 18.467 30.497 15.176 1.245-.486-.449-.742-4.5-.68-6.979.107-18.528-6.174-23.893-12.995-1.157-1.471-2.104-2.147-2.104-1.501zm144.44 8.8c.834 2.175-1.135 4.189-3.492 3.572-2.781-.727-3.087-1.632-1.379-4.071 1.59-2.27 3.899-2.033 4.871.499zm-164.859 6.627c1.145.85 3.395 1.847 5 2.216 2.823.647 2.85.618.838-.878-1.145-.85-3.395-1.847-5-2.216-2.823-.647-2.85-.618-.838.878zm164.15 1.309c2.641 2.641 2.641 2.641.315 4.524-2.289 1.854-2.348 1.85-3.831-.268-1.868-2.666-7.5-2.26-22.665 1.636-13.133 3.373-15.437 6.41-11.13 14.667 1.208 2.314 1.209 2.864.007 3.862-5.569 4.621-8.978-12.174-3.676-18.108 5.706-6.386 36.208-11.085 40.98-6.313zm-185.231.36c-1.786.767-1.712.867.691.93 1.48.038 2.969-.38 3.309-.93.738-1.194-1.222-1.194-4 0zm15 4.574c17.113 2.267 30.689 4.2 38.756 5.519 8.124 1.328 18.322-.714 23.426-4.689 1.633-1.272 1.532-1.313-.997-.41-3.968 1.418-23.054 1.202-44.185-.501-22.442-1.808-30.956-1.767-17 .081zm157.5 3.003c0 1.515 1.205 3.782 2.923 5.5 2.924 2.923 2.924 2.923.25 3.507-1.47.321-3.194.741-3.831.933s-1.43-.733-1.762-2.056c-1.69-6.731-8.06-8.089-16.393-3.496-5.137 2.832-5.302 2.858-5 .777.327-2.247 2.242-3.006 15.313-6.066 8.461-1.981 8.5-1.977 8.5.901zm-6.829 5.078c3.755 3.398 2.399 6.632-4.921 11.739-21.897 15.279-29.903 20.572-31.14 20.588-.764.01-1.987.805-2.718 1.768-1.192 1.57-1.332 1.414-1.36-1.514-.018-1.795-.594-4.164-1.282-5.265-2.502-4.006 4.305-12.316 7.485-9.136.697.697.344 1.885-1.106 3.729-2.051 2.607-2.823 5.436-1.483 5.436 1.161 0 33.354-23.397 33.354-24.241 0-2.658-3.595-1.777-6.736 1.65-3.405 3.716-6.264 4.218-6.264 1.1 0-4.42 12.682-9.011 16.171-5.854zm22.862 4.264c-1.724 4.163-4.264 5.534-14.033 7.574-13.474 2.813-13.886 2.864-11.5 1.41 1.1-.671 3.411-2.439 5.136-3.931 1.824-1.577 4.961-2.999 7.5-3.4 2.4-.379 6.389-1.746 8.864-3.036 5.269-2.747 5.685-2.604 4.033 1.383zm-88.011 3.898c2.485 2.012 1.662 5.323-1.637 6.589-2.187.839-2.5.434-3.378-4.366-.853-4.665.991-5.482 5.015-2.223zm3.862 2.555c-.11 2.021-.141 2.028-.608.128-.27-1.1-1.005-2.675-1.634-3.5-.993-1.305-.914-1.321.608-.128.963.755 1.698 2.33 1.634 3.5zm30.831 1.196c3.382 2.187 4.555 4.963 2.735 6.474-1.238 1.027-1.918.867-3.794-.895-4.828-4.536-9.607-2.311-15.279 7.113-4.141 6.881-5.059 7.799-7.036 7.04-2.067-.793-1.652-2.292 2.504-9.05 7.827-12.723 13.345-15.548 20.87-10.682zm7.331.518c.614 1.147.865 2.336.559 2.642-.826.826-3.605-1.757-3.605-3.35 0-2.071 1.78-1.657 3.046.708zm-149.796.764c-1.062 1.122-2.14 1.499-2.742.958-1.07-.962 1.023-2.766 3.242-2.793.815-.01.642.628-.5 1.835zm.958 3.189c-.3 2.043.167 3.731 1.423 5.146 1.849 2.083 1.845 2.093-.369.932-2.725-1.43-3.95-5.583-2.251-7.63 1.662-2.003 1.709-1.942 1.197 1.552zm3.792.961c0 3.14-1.649 4.078-2.638 1.5-.716-1.864.226-4.5 1.607-4.5.567 0 1.031 1.35 1.031 3zm2.683.188c-.319.797-.556.56-.604-.605-.043-1.054.193-1.644.525-1.312s.368 1.195.079 1.917zm-10.021 2.062c-.277.688-.504.125-.504-1.25s.227-1.937.504-1.25c.278.688.278 1.813 0 2.5zm113.496 2.5c.086 3.162.13 6.35.097 7.083-.039.864.719.601 2.157-.75 1.219-1.146 2.61-2.083 3.091-2.083s-.111.918-1.314 2.039c-4.082 3.802.038 7.001 6.811 5.288 5.55-1.403 6.748-.743 7.217 3.977.753 7.581-3.9 10.936-14 10.094-4.588-.383-8.651-.254-9.651.305-1.323.74-.612 1.009 3.035 1.147 6.789.257 9.747 9.911 4.158 13.573-10.56 6.919-67.597 14.398-88.933 11.662-18.421-2.362-18.849-2.907-21.279-27.085-.913-9.075-1.916-18.188-2.231-20.25-.572-3.751-.572-3.751 4.059-1.702 16.514 7.305 89.474 2.012 103.026-7.474 3.28-2.295 3.589-1.952 3.757 4.176zm2.535-.019c-.254.973-.478.419-.498-1.231s.187-2.446.461-1.769.291 2.027.037 3zm-113.926 14.269c-.034 4.5-.034 4.5-.813-.5-.428-2.75-.755-7.25-.726-10 .054-5 .054-5 .814.5.418 3.025.745 7.525.725 10zm48.483-9.294c-1.238.238-3.263.238-4.5 0-1.237-.239-.225-.434 2.25-.434s3.488.195 2.25.434zm94.533 6.544c-.796 1.238-3.41 5.573-5.809 9.634-5.724 9.691-13.743 15.765-15.336 11.616-.42-1.095.123-1.5 2.011-1.5 4.49 0 10.344-6.841 10.383-12.132.036-5.024 1.253-6.918 5.468-8.517 4.452-1.689 4.873-1.573 3.283.899zm-19.224 1.282c-1.068.807-1.46 1.468-.873 1.468.588 0 1.629-.675 2.314-1.5 1.557-1.876 1.067-1.866-1.441.032zm-22.059.468c-.357.577.57.994 2.191.985 2.181-.012 2.474-.232 1.309-.985-1.921-1.242-2.733-1.242-3.5 0zm11 .506c2.286.797 8.322 1.015 7.871.285-.269-.435-2.375-.755-4.68-.712s-3.741.236-3.191.427zm-111.793 10.732c-.239 1.244-.444.462-.455-1.738s.185-3.218.435-2.262.259 2.756.02 4zm1 11c-.239 1.244-.444.462-.455-1.738s.185-3.218.435-2.262.259 2.756.02 4z" fill="#535353" fill-rule="evenodd"/></svg>