<svg fill="none" height="367" viewBox="0 0 246 367" width="246" xmlns="http://www.w3.org/2000/svg"><path clip-rule="evenodd" d="m122.907 3.64402c-9.796 10.79198-17.455 26.39498-20.299 41.35598-2.84 14.937-7.741 25.215-16.215 34-11.336 11.753-11.357 20.17-.111 44.052 5.745 12.202 13.404 36.209 16.998 53.28 2.058 9.774-1.593 24.668-6.047 24.668-2.389 0-7.233 5.037-7.233 7.52 0 3.238-.88 3.524-4.344 1.412-5.067-3.09-31.683 1.799-38.975 7.158-3.846 2.827-6.118 1.845-5.292-2.287 1.997-9.983-2.133-14.4-17.926-19.177-6.58-1.99-13.283-4.062-14.89704-4.605-3.524-1.185-3.891-.899-4.178 3.254-.249 3.589 1.033 5.708 3.484 5.759.896.019 3.42804.903 5.62804 1.966s4.675 1.965 5.5 2.005.095.685-1.622 1.432-3.742 2.232-4.5 3.299-2.559 2.233-4.00104 2.59c-1.665.411-3.094 1.783-3.91 3.754-1.573 3.798-1.172 4.123 7.89804 6.401 3.598.904 8.079 2.882 10.061 4.441 21.901 17.23 30.097 20.479 43.074 17.078 8.917-2.337 10-2.411 10-.684 0 .724 1.912 2.369 4.25 3.656 2.338 1.288 4.338 2.396 4.445 2.462.107.067-.18 1.785-.639 3.817-.64 2.838-.414 4.476.974 7.066 2.163 4.036.77 11.524-11.057 59.426-7.584 30.719-7.722 31.418-5.148 26.257 4.98-9.989 14.008-38.873 19.176-61.354 4.534-19.726 3.592-18.058 9.093-16.096 2.423.864 9.76 2.885 16.304 4.491 14.48 3.555 13.205 1.734 10.223 14.609-3.913 16.894-3.975 17.35-2.353 17.35 1.402 0 2.189-3.601 4.783-21.895 1.105-7.798.464-7.242 7.003-6.072 2.995.536 14.784 1.265 26.196 1.619s20.75 1.034 20.75 1.509c0 .476-1.143 10.637-2.54 22.58-1.396 11.944-2.403 22.625-2.237 23.737.167 1.112 1.133-4.278 2.147-11.978s2.215-15.575 2.668-17.5c.454-1.925 1.134-6.55 1.513-10.279.513-5.055 1.15-7.026 2.503-7.75 4.116-2.202 4.104-2.32 3.362 32.883-.688 32.613.42 56.146 2.643 56.146.389 0 .935-19.238 1.215-42.75.556-46.823.629-47.46 5.733-50.007 1.921-.959 4.221-3.2 5.111-4.981.889-1.781 2.062-3.806 2.606-4.5.933-1.192 1.595-5.254 6.111-37.511 2.16-15.426 1.83-16.551-5.392-18.37-2.443-.615-4.435-1.403-4.426-1.75.034-1.263 3.774-14.704 4.829-17.352.595-1.497 3.884-5.48 7.307-8.85 13.392-13.186 13.041-12.19 23.938-67.929 1.149-5.878 3.561-13.857 5.481-18.126 4.115-9.154 4.157-10.018.813-16.729-3.088-6.196-4.093-6.208-1.939-.023 2.219 6.371 2.086 7.078-1.059 5.644-1.438-.655-2.113-1.357-1.5-1.562 1.681-.56 1.334-2.204-.466-2.204-1.613 0-1.236-5.097.555-7.5 5.666-7.603-4.38-19.754-16.476-19.928-5-.072-5-.072-4.666-6.875.658-13.402-16.223-21.351-28.152-13.256-3.52 2.389-3.52 2.389-3.005-2.776 1.322-13.271-20.087-22.01898-29.292-11.97-3.385 3.696-3.385 3.696-3.385-.852 0-12.41299-22.959-22.15898-31.093-13.19898zm19.211 2.509c7.516 2.252 10.286 10.83698 5.377 16.66998-1.472 1.75-3.086 2.93-3.586 2.621s-.909.14-.909.997c0 2.24 1.878 1.92 4.058-.691 1.879-2.25 1.879-2.25.951.75-.906 2.928-3.996 14.805-6.033 23.183-.982 4.041-1.196 4.22-6.247 5.229-3.964.793-23.692 1.178-23.724.464-.003-.069.69-2.094 1.539-4.5 1.833-5.194 6.745-28.92 6.117-29.548-.24-.24-1.178 3.075-2.086 7.368-3.717 17.583-9.096 30.595-14.986 36.25-3.882 3.727-4.157 3.658-2.505-.631.596-1.548 2.858-9.55 5.026-17.781 9.251-35.126 19.009-45.772985 37.008-40.38098zm-5.492 4.53598c1.169.23 3.16 1.519 4.424 2.864 1.264 1.346 3.008 2.434 3.874 2.418 1.07-.02.527-.984-1.69-3-2.109-1.919-4.234-2.923-6-2.835-2.164.108-2.291.223-.608.553zm35.325 6.394c2.777.595 5.049 1.443 5.049 1.883 0 .441.889 1.033 1.976 1.317 4.792 1.254 4.761 9.687-.065 17.623-2.044 3.361-9.522 4.443-14.032 2.029-1.095-.586-2.527-.864-3.184-.619s.114.965 1.714 1.6c4.314 1.713 14.233 2.864 16.027 1.86 1.754-.982 2.003.938.947 7.322-.595 3.599-.595 3.599-2.944 1.25-2.732-2.732-5.718-2.92-13.439-.848-3.025.812-5.674 1.482-5.888 1.488-.213.007-.1-2.436.252-5.428s.246-5.683-.235-5.98c-.481-.298-1.178 2.136-1.548 5.409-.791 6.992-1.281 7.433-7.254 6.537-5.74-.86-5.083-9.775 1.702-23.083 1.084-2.126 1.971-4.697 1.971-5.713 0-1.14.442-1.575 1.152-1.136.633.391 1.751-.109 2.484-1.111 3.685-5.039 7.382-6.101 15.315-4.4zm-41.951 3.266c0 1.71 2.196 4.15 5.164 5.739 3.051 1.632 3.637.042.821-2.23-2.485-2.005-2.485-2.005 3.765-1.382 7.648.763 8.561-1.004 1-1.935-2.887-.356-6.488-.884-8-1.173-2.017-.387-2.75-.125-2.75.981zm44 5.49c0 1.359 4.846 3.219 5.524 2.121.328-.53-.585-1.413-2.029-1.962-3.191-1.213-3.495-1.227-3.495-.159zm33.269 8.899c4.659 1.847 7.731 5.602 7.731 9.448 0 2.916 0 2.916-3.527.225-4.461-3.402-5.413-2.686-1.463 1.099 5.258 5.037 3 10.142-4.957 11.21-7.888 1.058-4.511 2.891 4.697 2.549 1.768-.066 1.698.127-2.75 7.614-4.541 7.644-5.179 10.045-1.493 5.617 2.349-2.821 2.445-2.851 1.609-.5-1.492 4.197-9.136 20.388-9.899 20.968-.394.299-1.68 2.342-2.856 4.538-3.361 6.275-14.057 5.037-20.762-2.403-2.114-2.347 1.902-15.927 5.969-20.179 2.743-2.868 2.918-3.53 2.716-10.245-.248-8.229 2.649-28.839 3.941-28.04.474.293 1.514-.007 2.309-.667 4.673-3.879 11.012-4.296 18.735-1.234zm-41.269 3.262c0 .55 1.377 1 3.059 1 1.785 0 2.802-.417 2.441-1-.34-.55-1.716-1-3.059-1s-2.441.45-2.441 1zm-39.5 8.956c-1.604.614-1.15.911 2.289 1.499 2.908.498 4.796 1.508 5.865 3.139 1.912 2.919 3.346 3.103 3.346.429 0-3.412-7.356-6.654-11.5-5.067zm81.5 2.044c0 .55.927 1 2.059 1s1.781-.45 1.441-1-1.266-1-2.059-1-1.441.45-1.441 1zm-80.299 1.632c-1.349 1.349-.68 2.118 1.841 2.118 1.438 0 2.379-.489 2.167-1.125-.448-1.344-3.02-1.981-4.008-.993zm72.299.694c0 .803.712 1.733 1.582 2.067 2.414.926 6.418.723 6.418-.326 0-.849-.783-1.189-6.25-2.714-1.091-.304-1.75.063-1.75.973zm-26.868 5.424c.131 3.75.131 3.75.767.25.635-3.5.635-3.5 2.27-1 5.325 8.144.762 19.451-9.669 23.958-15.416 6.662-32.5 5.823-32.5-1.597 0-1.143-2.926-3.361-4.434-3.361-1.229 0-.455 3.67 1.423 6.75 1.982 3.25 1.982 3.25-.472 3.25-1.657 0-2.925-.893-3.908-2.75-1.209-2.286-1.565-2.468-2.109-1.078-1.072 2.74 1.277 5.691 5.417 6.806 7.607 2.048-1.886 10.022-11.931 10.022-3.647 0-4.059.207-2.986 1.5 1.566 1.886 4.103 1.902 8.532.051 1.907-.797 3.468-1.061 3.468-.587 0 1.781-14.229 6.322-19.81 6.322-4.893 0-5.309.154-3.664 1.357 2.393 1.749 5.958 1.718 12.018-.106 9.098-2.738 2.218 5.311-7.979 9.334-3.003 1.186-4.21 2.026-2.964 2.064 2.816.087 8.221-1.806 11.899-4.167 2.99-1.919 2.99-1.916-.256.981-1.79 1.598-3.002 3.16-2.692 3.47 1.338 1.338 4.858-.808 7.567-4.611 12.247-17.197 24.881-28.068 24.881-21.408 0 .926.271.929 1.186.014 2.853-2.853 4.812 1.429 3.175 6.94-.814 2.743-1.282 5.518-1.04 6.167.416 1.114.966.094 3.598-6.673.849-2.184 1.515-2.673 2.845-2.088.955.42 3.454.966 5.553 1.213 10.369 1.222 6.478 37.294-5.109 47.37-2.124 1.846-4.147 4.137-4.497 5.09-.364.995-1.252 1.497-2.083 1.178-.875-.336-1.692.215-2.065 1.392-.883 2.781-7.022 8.849-11.363 11.23-2.512 1.379-2.898 1.817-1.2 1.365 5.614-1.494 7.614-2.721 11.709-7.181 3.089-3.364 4.291-4.166 4.291-2.862 0 2.364 2.188 1.608 3.627-1.254 1.722-3.423 4.6-4.999 14.131-7.737 4.808-1.381 11.087-3.822 13.952-5.424 5.211-2.912 5.211-2.912 10 4.234 2.635 3.931 5.575 8.312 6.535 9.737.959 1.424 1.747 2.103 1.75 1.51.008-1.637-8.57-16.34-11.111-19.045-1.997-2.125-2.043-2.376-.436-2.376 1.453 0 1.567-.276.599-1.444-.886-1.067-1.767-1.189-3.373-.469-1.196.536-5.324 1.615-9.174 2.399-7 1.424-7 1.424-.248 1.219 3.714-.113 6.751-.129 6.75-.037-.012 1.005-8.045 4.614-13.844 6.221-4.037 1.119-8.232 2.317-9.321 2.663-1.69.536-1.538.018 1.035-3.534 3.236-4.467 5.577-10.79 6.672-18.018.868-5.732 2.382-8.677 2.426-4.718.016 1.53.705 4.398 1.53 6.372.825 1.975 1.5 4.51 1.5 5.635 0 1.124.298 1.746.662 1.382.365-.364.088-5.169-.614-10.677-3.218-25.253 3.462-26.863 15.295-3.687 6.423 12.579 10.497 19.187 11.321 18.363.244-.245-2.505-6.175-6.11-13.177-6.601-12.823-7.557-16.09-5.354-18.293 1.628-1.628 3.8-1.516 3.8.196 0 7.916 20.754 12.23 26.705 5.551 1.704-1.913 3.591-2.947 5.379-2.947 1.514 0 3.464-.273 4.334-.607 2.771-1.063 1.703-2.393-1.921-2.393-3.503 0-3.503 0 1.142-8.954 4.753-9.162 10.102-10.118 7.918-1.416-.365 1.452-.133 3.175.534 3.979.935 1.127.43 2.627-2.457 7.305-4.099 6.641-4.232 7.086-2.122 7.086 1.206 0 1.39.859.909 4.25-1.647 11.628-3.731 22.957-5.407 29.393-1.023 3.929-2.18 9.281-2.572 11.894-.789 5.265-5.504 10.806-14.861 17.463-5.677 4.039-5.326 3.432-9.542 16.5-1.774 5.5-3.631 10.9-4.127 12-.734 1.629-3.912 15.493-3.912 17.065 0 .239-.728.435-1.617.435-2.058 0-1.263-11.139 1.707-23.927 2.005-8.635 1.533-11.553-1.395-8.625-1.742 1.742-2.484 5.727-4.104 22.052-1.091 11-1.091 11-9.744 11.288-8.653.287-8.653.287-7.774-3.5 1.146-4.938 1.042-8.919-.125-4.788-.466 1.65-1.121 4.305-1.454 5.9-.607 2.9-.607 2.9-11.801 2.264-19.069-1.083-18.619-.886-17.155-7.521 3.21-14.546 3.711-15.984 5.363-15.384 1.272.461 1.207.133-.317-1.601-3.459-3.94-5.712-1.032-8.488 10.96-1.321 5.71-2.488 10.498-2.591 10.64-.485.667-26.217-5.326-28.213-6.571-1.415-.882 2.924-27.782 5.228-32.41 1.554-3.121.797-6.88-2.519-12.499-1.146-1.943-3.15-7.187-4.454-11.655-2.475-8.481-3.942-12.755-5.533-16.123-18.58-39.333-19.859-51.406-6.514-61.474 3.299-2.489 9.149-7.502 13-11.139 9.623-9.091 12.322-10.374 18.492-8.792 4.052 1.038 6.07.969 12.664-.431 9.439-2.005 11.663-1.554 12.906 2.616.979 3.282 6.377 7.28 8.678 6.426.709-.263.012-.964-1.591-1.6-3.28-1.304-6.567-4.877-6.616-7.192-.025-1.184 2.061-2.038 8.217-3.364 4.537-.977 8.7-1.915 9.25-2.084 4.57-1.407 6.501-.45 6.632 3.284zm55.222 1.281c10.673 3.993 9.818 16.237-.945 13.536-1.728-.434-2.405-1.136-2.031-2.109.618-1.612-1.992-1.99-4.175-.604-1.909 1.21.86 3.201 6.603 4.747 2.582.695 3.906 1.294 2.944 1.332-1.944.074-2.322 2.095-.697 3.72.737.737.408 2.146-1.099 4.7-2.669 4.524-1.075 4.767 2.603.397 2.517-2.99 2.676-3.05 1.992-.75-1.067 3.587-4.582 8.781-10.544 15.578-2.857 3.257-5.791 7.067-6.519 8.467-2.58 4.956-16.323 1.697-16.454-3.902-.019-.79-.658-1.117-1.532-.781-2.768 1.062-1.617-2.855 4.844-16.482 3.489-7.359 7.612-16.755 9.162-20.88 3.807-10.132 5.455-10.857 15.848-6.969zm-114.209 4.289c-1.467 1.773 2.279 13.154 3.983 12.101.437-.27.296-1.713-.314-3.206s-1.38-4.474-1.711-6.623c-.533-3.457-.76-3.72-1.958-2.272zm57.042 1.18c-1.591 1.829-3.182 2.504-5.93 2.515-2.067.009-4.432.452-5.257.985-2.471 1.597 6.557 1.212 10.532-.449 2.359-.986 3.468-2.105 3.468-3.5 0-2.607-.181-2.578-2.813.449zm-45.446 4.222c.55 7.745.779 8.242 2.299 5.005.927-1.975 1.037-3.822.381-6.424-1.514-6.003-3.146-5.139-2.68 1.419zm99.735-4.683c-.327.529.052.961.843.961.79 0 1.996.675 2.681 1.5 1.289 1.553 4.019 2.068 3.975.75-.043-1.315-6.866-4.236-7.499-3.211zm-106.476 2.735c0 1.71.443 3.382.985 3.717.615.38.749-.63.356-2.691-.842-4.422-1.341-4.803-1.341-1.026zm53.997 17.733c-3.965 10.43-8.821 12.9-16.902 8.595-3.404-1.813-3.404-1.813 3.5-3.922 3.798-1.16 8.48-3.228 10.405-4.596 1.925-1.367 3.601-2.508 3.725-2.535s-.203 1.079-.728 2.458zm6.982.609c1.364.544 3.279 1.713 4.257 2.597.977.885 2.111 1.272 2.52.861 1.203-1.207-3.744-4.58-6.617-4.511-2.639.064-2.639.064-.16 1.053zm60.521 4.884c0 .733-.562 1.521-1.25 1.75-.744.248-1.25-.461-1.25-1.75s.506-1.998 1.25-1.75c.688.229 1.25 1.017 1.25 1.75zm-154.5 5.306c0 1.632 3.15 4.694 4.829 4.694.644 0 1.171-.45 1.171-1s-.365-1-.811-1c-.447 0-1.797-.918-3-2.039-1.549-1.442-2.189-1.634-2.189-.655zm95 .587c0 .962 2.432 2.127 4.332 2.075.642-.017.294-.692-.773-1.5-2.204-1.667-3.559-1.886-3.559-.575zm27 2.568c0 .254 1.8.947 4 1.539s4 1.51 4 2.039c0 .528.45.961 1 .961 2.682 0 .576-3.024-2.75-3.947-4.033-1.12-6.25-1.33-6.25-.592zm-37.908 7.625c-.639 1.599-.987 1.851-1.029.746-.084-2.217 1.211-5.511 1.649-4.196.19.57-.089 2.122-.62 3.45zm34.908-1.194c0 1.923 3.979 4.237 6.662 3.873 2.491-.337 2.593-.475.838-1.126-1.1-.408-3.238-1.372-4.75-2.144-1.512-.771-2.75-1.043-2.75-.603zm19.682 23.42c-6.045 13.084-6.714 16.688-3.098 16.688 1.796 0 2.922-2.873 3.802-9.705.369-2.863 1.338-7.095 2.153-9.406 2.45-6.944.84-5.579-2.857 2.423zm-110.13 40.938c.378 1.238 1.287 3.716 2.02 5.507 1.31 3.203 1.291 3.247-1.12 2.642-5.044-1.266-2.546 2.287 3.137 4.462 7.514 2.876 10.993 2.941 7.411.139-2.5-1.956-2.5-1.956 0-1.979 1.375-.012 5.65-.644 9.5-1.404s12.738-2.419 19.75-3.688c14.424-2.61 15.549-3.378 6.221-4.249-5.603-.524-8.22-.119-18.452 2.855-16.208 4.71-17.316 4.636-23.019-1.535-5.055-5.47-6.501-6.2-5.448-2.75zm-111.51604 6.988c-4.205 7.334-3.394999 9.762 3.259 9.762 2.102 0 7.90504-10.32 6.47604-11.518-4.61604-3.871-6.72604-3.49-9.73504 1.756zm194.66604 1.901c-6.269 5.526-5.491 5.375-16.952 3.284-5.187-.947-4.785.704 1.088 4.473 8.244 5.29 13.316 3.626 20.082-6.589 5.31-8.017 3.972-8.387-4.218-1.168zm-188.79504-.751c1.97204 2.376-.634 6.612-4.068 6.612-3.338 0-3.319.074-1.154-4.466 1.793-3.76 3.351-4.4 5.222-2.146zm123.61904 8.569c-1.819 2.944 5.604 4.215 22.839 3.911 17.135-.303 17.135-.303 23.948 4.415 3.747 2.594 7.325 4.717 7.95 4.717 1.311 0 1.14-.166-5.762-5.579-2.749-2.157-5.66-4.55-6.469-5.319-1.192-1.133-4.613-1.288-18.002-.816-13.14.463-17.043.295-19.03-.817-2.969-1.661-4.666-1.819-5.474-.512zm-111.526 11.573c11.639 2.909 16.076 5.148 17.828 8.992 3.776 8.286-3.237 18.448-9.39 13.608-1.724-1.357-2.163-2.13-1.208-2.13 2.39 0 6.77-3.958 6.77-6.118 0-3.895-4.217-6.533-14.082-8.81-13.43304-3.1-13.08904-2.958-12.39204-5.153.341-1.074.139-1.919-.459-1.919-.587 0-1.067-.48-1.067-1.067s.788-.834 1.75-.547c.962.286 6.47504 1.701 12.25004 3.144zm74.23 7.72c-.558.688-1.236 2.15-1.506 3.25-.482 1.959-.494 1.958-.608-.05-.064-1.128.424-2.59 1.084-3.25 1.581-1.581 2.325-1.545 1.03.05zm4.236 3.079c-.442 2.357-1.103 3.364-1.987 3.025-2.497-.959-2.695-3.76-.399-5.62 2.789-2.258 3.211-1.8 2.386 2.595zm-73.365-1.187c3.348 1.124 7.256 3.834 6.549 4.541-.199.199-2.947-.998-6.107-2.661-6.018-3.165-6.168-3.803-.442-1.88zm.181 4.663c5.492 3.635 1.555 5.923-4.636 2.694-1.57-.819-3.297-1.215-3.838-.881-1.063.658 6.663 6.587 11.942 9.165 3.505 1.712 4.071 3.291 1.842 5.141-1.113.923-2.531.47-6.75-2.158-2.938-1.829-6.53-3.925-7.982-4.656-5.69-2.867-6.051-9.906-.618-12.067 2.804-1.115 5.161-.467 10.04 2.762zm59.552 1.841c5.288 3.422 7.847 16.854 3.211 16.854-2.064 0-2.584-.638-3.261-4-2.283-11.338-2.766-11.541-17.596-7.423-2.507.696-4.676.826-5.179.311-4.865-4.986 15.915-10.213 22.825-5.742zm122.166.389c0 1.421-.479 1.203-2.595-1.181-1.895-2.134-1.893-2.139.345-.964 1.238.649 2.25 1.615 2.25 2.145zm-195.757 4.35c.874 1.696.685 1.814-1.883 1.169-3.85204-.967-4.00804-1.266-1.78104-3.413 1.183-1.14 2.06904-1.427 2.30604-.746.212.608.823 1.953 1.358 2.99zm85.98-2.416c17.29 10.201 89.337 15.998 104.081 8.374 2.888-1.494 2.888-1.494 2.324 1.332-.311 1.554-1.529 10.915-2.708 20.803-2.57 21.565-2.62 21.714-8.167 24.4-13.898 6.728-50.1 4.217-88.253-6.12-15.902-4.309-16.365-4.616-15.802-10.472.669-6.964.882-7.286 4.81-7.286 1.965 0 5.336-.9 7.492-2s4.613-2 5.46-2 1.54-.45 1.54-1c0-1.629-3.3-1.147-7.539 1.102-8.141 4.319-24.185.833-22.029-4.786.313-.814.568-2.802.568-4.418 0-2.939 0-2.939 4.25-.751 6.407 3.297 12.259 3.041 17.755-.776 2.478-1.722 5.403-3.357 6.5-3.634 1.906-.482 1.901-.51-.114-.621-1.16-.064-4.639 1.234-7.731 2.884s-6.643 2.961-7.891 2.914c-1.991-.075-1.924-.189.545-.931 5.823-1.747 6.497-6.983.9-6.983-1.149 0-1.338-.831-.856-3.75.341-2.062.625-4.762.631-6 .013-2.735.069-2.738 4.234-.281zm104.575.697c.164 1.105-.398 2.587-1.25 3.294-1.35 1.121-1.548.811-1.548-2.421 0-3.957 2.237-4.655 2.798-.873zm2.551 3.169c-1.312 2.113-5.183 4.026-9.493 4.69-2.877.443-2.744.314.926-.908 5.774-1.921 7.206-3.295 7.286-6.989.066-3.044.097-3.065 1.191-.793.782 1.628.81 2.841.09 4zm-144.538-1.071c.287 1.942-4.119 4.206-8.232 4.23-2.016.013-4.579 3.474-4.579 6.184 0 2.827-.036 2.845-2.492 1.236-4.977-3.261-.399-10.563 8.076-12.881 5.957-1.629 6.827-1.481 7.227 1.231zm30.872.424c-.319.797-.556.56-.604-.605-.043-1.054.193-1.644.525-1.312s.368 1.195.079 1.917zm116 0c-.319.797-.556.56-.604-.605-.043-1.054.193-1.644.525-1.312s.368 1.195.079 1.917zm-125.718.746c1.577 2.947 1.27 4.002-1.534 5.279-1.412.644-3.155 2.291-3.873 3.66-1.654 3.159-17.558 8.074-17.558 5.427 0-.825-1.551-3.051-3.446-4.946-4.109-4.109-4.803-3.633 11.946-8.192 13.369-3.638 13.183-3.623 14.465-1.228zm-40.748 1.316c3.277 2.561.428 6.244-3.182 4.112-2.79-1.649-2.878-1.878-1.354-3.562 1.932-2.135 2.431-2.196 4.536-.55zm164.783 12.25c-.686 6.372-1.454 11.38-1.705 11.128-.251-.251.101-5.674.782-12.051s1.448-11.385 1.705-11.128c.256.256-.096 5.679-.782 12.051zm-66.75-9.838c-.687.278-1.812.278-2.5 0-.687-.277-.125-.504 1.25-.504s1.938.227 1.25.504zm26.667 1.977c.766.665-14.354.196-19.417-.602-3.144-.496-.547-.597 7-.274 6.6.283 12.188.677 12.417.876zm25.352.017c-.677.274-2.027.291-3 .037s-.419-.478 1.231-.498 2.446.187 1.769.461zm-139.144 10.766c.416-.256.292-1.797-.275-3.423-1.623-4.656-.581-5.821 2.474-2.766 3.958 3.958 2.438 11.767-2.29 11.767-2.329 0-19.034-10.885-19.034-12.403 0-3.676 2.397-3.218 10.27 1.962 4.455 2.932 8.44 5.12 8.855 4.863zm124.643-9.707c-1.503.228-4.203.232-6 .01-1.797-.223-.568-.41 2.732-.415 3.3-.006 4.771.176 3.268.405zm-93.404 1.779c-.316.822-.976 1.246-1.469.941-1.412-.872-1.044-2.435.574-2.435.892 0 1.243.587.895 1.494zm-7.364 7.923c0 2.136-.842 2.666-7.25 4.562-3.987 1.18-8.284 2.567-9.547 3.083s-3.513.909-5 .875c-2.52-.059-2.558-.122-.56-.929 1.179-.475 2.831-1.846 3.671-3.047 1.002-1.429 4.229-2.97 9.357-4.468 9.949-2.905 9.329-2.9 9.329-.076zm127.693 14.314c-.254.973-.478.419-.498-1.231s.187-2.446.461-1.769.291 2.027.037 3zm-116.031 2.519c-.277.688-.504.125-.504-1.25s.227-1.937.504-1.25c.278.688.278 1.813 0 2.5zm115.027 6.5c-.251.962-.457.175-.457-1.75s.206-2.712.457-1.75c.252.962.252 2.538 0 3.5zm-28.531 71.25c0 1.375.227 1.938.504 1.25.278-.687.278-1.812 0-2.5-.277-.687-.504-.125-.504 1.25z" fill="#535353" fill-rule="evenodd"/></svg>